<svg xmlns="http://www.w3.org/2000/svg" width="58" height="58" viewBox="0 0 58 58">
  <g id="Active_Calories" data-name="Active Calories" transform="translate(-267.5 -462.527)">
    <rect id="Rectangle" width="58" height="58" transform="translate(267.5 462.527)" fill="#d8d8d8" opacity="0"/>
    <g id="Group_40850" data-name="Group 40850" transform="translate(-1.209 -0.242)">
      <g id="Combined_Shape" data-name="Combined Shape" transform="translate(276.243 479.873)" fill="none">
        <path d="M21.75,34.366c-2.643,1.611-7.262,2.976-11.991-2.474C2.505,23.529-1.077,18.659.285,10.951S9.544,0,13.63,0c2.862,0,6.106,2,8.119,3.2C23.763,2,27.007,0,29.869,0c4.087,0,11.984,3.245,13.346,10.951s-2.221,12.578-9.474,20.941c-2.557,2.947-5.082,3.9-7.28,3.9A9.135,9.135,0,0,1,21.75,34.366Z" stroke="none"/>
        <path d="M 26.46024513244629 33.79360580444336 C 28.43941497802734 33.79360580444336 30.38057518005371 32.71285629272461 32.22964477539062 30.58156585693359 C 35.99748611450195 26.23752593994141 38.4643440246582 23.1581859588623 39.92368698120117 20.27329635620117 C 41.43384552001953 17.28795623779297 41.82908630371094 14.60406589508057 41.24531555175781 11.29911613464355 C 40.60819625854492 7.693245887756348 38.28737640380859 5.474775791168213 36.4526252746582 4.248665809631348 C 33.96897506713867 2.588915824890137 31.35381507873535 1.999995708465576 29.86899566650391 1.999995708465576 C 27.66192626953125 1.999995708465576 24.74277496337891 3.741005659103394 22.9986457824707 4.781215667724609 L 21.74970626831055 5.524775505065918 L 20.50073623657227 4.781205654144287 C 18.75662612915039 3.740995645523071 15.83751487731934 1.999995708465576 13.63045501708984 1.999995708465576 C 12.1456356048584 1.999995708465576 9.530475616455078 2.588915824890137 7.046825408935547 4.248665809631348 C 5.212075233459473 5.474775791168213 2.891255378723145 7.693245887756348 2.254155397415161 11.29901599884033 C 1.670365333557129 14.60406589508057 2.06561541557312 17.28795623779297 3.575765371322632 20.27329635620117 C 5.035115242004395 23.15819549560547 7.501965522766113 26.23753547668457 11.26963520050049 30.58137512207031 C 13.11893558502197 32.71291732788086 15.06008529663086 33.79365539550781 17.03916549682617 33.79357528686523 C 18.23804473876953 33.79353713989258 19.47270584106445 33.41150665283203 20.70883560180664 32.65810394287109 L 21.74970626831055 32.02371597290039 L 22.79057502746582 32.65810394287109 C 24.02677536010742 33.41154479980469 25.26139450073242 33.79357528686523 26.46010589599609 33.79360580444336 L 26.46024513244629 33.79360580444336 M 26.46024322509766 35.79360580444336 C 26.46010971069336 35.79360580444336 26.46023941040039 35.79360580444336 26.46010589599609 35.79360580444336 C 24.59388542175293 35.79356384277344 22.96342468261719 35.10564422607422 21.74970626831055 34.36590576171875 C 19.10645294189453 35.97691345214844 14.48726463317871 37.34199523925781 9.758945465087891 31.89202499389648 C 2.505325317382812 23.52914619445801 -1.076894640922546 18.65932655334473 0.2846453487873077 10.95112609863281 C 1.646205306053162 3.245095729827881 9.543624877929688 -4.287719548301538e-06 13.63045501708984 -4.287719548301538e-06 C 16.49277496337891 -4.287719548301538e-06 19.73676490783691 1.999205708503723 21.74970626831055 3.197315692901611 C 23.76265525817871 1.999205708503723 27.00667572021484 -4.287719548301538e-06 29.86899566650391 -4.287719548301538e-06 C 33.95582580566406 -4.287719548301538e-06 41.85324478149414 3.245095729827881 43.21480560302734 10.95112609863281 C 44.57635498046875 18.65932655334473 40.99412536621094 23.52914619445801 33.74050521850586 31.89202499389648 C 31.1834716796875 34.83932495117188 28.6582088470459 35.79360580444336 26.46024322509766 35.79360580444336 Z" stroke="none" fill="#365b72"/>
      </g>
      <path id="Path_5" data-name="Path 5" d="M4.87,13.852S5.559,3.512,0,0" transform="translate(293.159 470.207)" fill="none" stroke="#365b72" stroke-linecap="round" stroke-width="2"/>
      <g id="Path_6" data-name="Path 6" transform="translate(296.784 467.84)" fill="none">
        <path d="M0,8.29S.755,2.066,6.385.517a15.417,15.417,0,0,1,10.531,1.13s-2.174,6.6-7.7,8.978S0,8.29,0,8.29Z" stroke="none"/>
        <path d="M 6.11357307434082 9.294858932495117 C 6.864152908325195 9.294858932495117 7.641663074493408 9.124438285827637 8.42452335357666 8.788338661193848 C 11.43787479400635 7.494602203369141 13.32180976867676 4.594383716583252 14.27018165588379 2.726010322570801 C 13.20378589630127 2.381832838058472 11.7095832824707 2.03532862663269 10.01602268218994 2.03532862663269 C 8.948872566223145 2.03532862663269 7.90583324432373 2.173418521881104 6.915873050689697 2.445768594741821 C 5.180422782897949 2.923218727111816 3.834933042526245 4.048238754272461 2.916763067245483 5.789588451385498 C 2.549234867095947 6.486630916595459 2.318427324295044 7.157818794250488 2.178380727767944 7.662819862365723 C 2.931223630905151 8.328311920166016 4.331501007080078 9.294858932495117 6.11357307434082 9.294858932495117 M 6.113577365875244 11.2948579788208 C 2.350033283233643 11.2948579788208 3.015441961906618e-06 8.290498733520508 3.015441961906618e-06 8.290498733520508 C 3.015441961906618e-06 8.290498733520508 0.7547430396080017 2.066478729248047 6.385353088378906 0.5174186229705811 C 12.01596450805664 -1.031631708145142 16.91666221618652 1.647858738899231 16.91666221618652 1.647858619689941 C 16.91666221618652 1.647858619689941 14.74306297302246 8.252108573913574 9.213542938232422 10.62611865997314 C 8.100481986999512 11.1039924621582 7.062085151672363 11.2948579788208 6.113577365875244 11.2948579788208 Z" stroke="none" fill="#365b72"/>
      </g>
    </g>
  </g>
</svg>
