<svg xmlns="http://www.w3.org/2000/svg" width="58" height="58" viewBox="0 0 58 58">
  <g id="Blood_Pressure" data-name="Blood Pressure" transform="translate(-278 -358.527)">
    <rect id="Rectangle" width="58" height="58" transform="translate(278 358.527)" fill="#d8d8d8" opacity="0"/>
    <g id="Group_40845" data-name="Group 40845" transform="translate(6.563 3.396)">
      <g id="Oval_Copy_6" data-name="Oval Copy 6" transform="translate(281 382.373)" fill="none">
        <path d="M19.438-22S38.876-3.987,38.876,6.509A19.226,19.226,0,0,1,19.438,25.516,19.226,19.226,0,0,1,0,6.509C0-3.987,19.438-22,19.438-22Z" stroke="none"/>
        <path d="M 19.43822288513184 -19.22657203674316 C 17.67131423950195 -17.49439430236816 14.43199157714844 -14.20555305480957 11.22755241394043 -10.36774444580078 C 8.48680305480957 -7.085273742675781 6.311103820800781 -4.05428409576416 4.760894775390625 -1.358994007110596 C 2.928901672363281 1.826215863227844 2.000003814697266 4.473526000976562 2.000003814697266 6.509395599365234 C 2.000003814697266 11.04342651367188 3.808223724365234 15.30845546722412 7.091562271118164 18.51883697509766 C 10.38704299926758 21.74108505249023 14.7718334197998 23.51565551757812 19.43822288513184 23.51565551757812 C 24.1046142578125 23.51565551757812 28.48940277099609 21.74108505249023 31.78488349914551 18.51883697509766 C 35.06822204589844 15.30845546722412 36.87644195556641 11.04342651367188 36.87644195556641 6.509395599365234 C 36.87644195556641 4.473526000976562 35.94754409790039 1.826215863227844 34.11555480957031 -1.358994007110596 C 32.56534194946289 -4.05428409576416 30.3896427154541 -7.085273742675781 27.64889335632324 -10.36774444580078 C 24.44445419311523 -14.20555305480957 21.20513153076172 -17.49439430236816 19.43822288513184 -19.22657203674316 M 19.43822288513184 -22.00000381469727 C 19.43822288513184 -22.00000381469727 38.87644195556641 -3.987473964691162 38.87644195556641 6.509395599365234 C 38.87644195556641 17.00626564025879 30.17365264892578 25.51565551757812 19.43822288513184 25.51565551757812 C 8.702793121337891 25.51565551757812 3.814697265625e-06 17.00626564025879 3.814697265625e-06 6.509395599365234 C 3.814697265625e-06 -3.987473964691162 19.43822288513184 -22.00000381469727 19.43822288513184 -22.00000381469727 Z" stroke="none" fill="#365b72"/>
      </g>
      <path id="Path_8" data-name="Path 8" d="M14.128,10.378S3.393,10,0,0" transform="translate(288.748 389.895)" fill="none" stroke="#365b72" stroke-width="2"/>
    </g>
  </g>
</svg>
