<svg xmlns="http://www.w3.org/2000/svg" width="58" height="58" viewBox="0 0 58 58">
  <g id="heart_rate" data-name="heart rate" transform="translate(-285 -169)">
    <rect id="Rectangle" width="58" height="58" transform="translate(285 169)" fill="#bcbcbc" opacity="0"/>
    <g id="Group_40841" data-name="Group 40841" transform="translate(3.173 -4.631)">
      <g id="favourite_copy" data-name="favourite copy" transform="translate(286.68 182.096)" fill="none">
        <path d="M3.626,20.939A12.274,12.274,0,1,1,21.006,3.6l3.143,3.135L27.292,3.6A12.269,12.269,0,1,1,44.666,20.93L24.275,41.064l-.146-.148-.152.155Z" stroke="none"/>
        <path d="M 23.95773696899414 38.23777008056641 L 24.1315746307373 38.06094360351562 L 24.29821968078613 38.23086166381836 L 43.26057434082031 19.50717353820801 C 45.21105575561523 17.58044242858887 46.28883361816406 15.00941276550293 46.29536437988281 12.26770305633545 C 46.30189514160156 9.527203559875488 45.23716354370117 6.952513217926025 43.29697418212891 5.017613410949707 C 41.34664535522461 3.071673154830933 38.75551605224609 2.000003337860107 36.00089645385742 2.000003337860107 C 33.24628448486328 2.000003337860107 30.65515518188477 3.071683168411255 28.70464515686035 5.017773151397705 L 24.14932441711426 9.561762809753418 L 19.59384536743164 5.017613410949707 C 17.64349555969238 3.071683168411255 15.05236530303955 2.000003337860107 12.29775524139404 2.000003337860107 C 9.543145179748535 2.000003337860107 6.952015399932861 3.071683168411255 5.001345157623291 5.017943382263184 C 3.060625314712524 6.953373432159424 1.994735360145569 9.52888298034668 2.000015258789062 12.27001285552979 C 2.005305290222168 15.01319313049316 3.082385301589966 17.58694267272949 5.03254508972168 19.51685333251953 L 23.95773696899414 38.23777008056641 M 23.97749519348145 41.07052230834961 L 3.626025438308716 20.93872261047363 C -1.193774700164795 16.16895294189453 -1.211174726486206 8.388973236083984 3.589055299758911 3.601803302764893 C 8.402325630187988 -1.200596809387207 16.19317626953125 -1.200596809387207 21.00645446777344 3.601803302764893 L 24.14932441711426 6.736853122711182 L 27.29219627380371 3.601803302764893 C 32.10547637939453 -1.200596809387207 39.89632415771484 -1.200596809387207 44.7095947265625 3.601803302764893 C 49.50764465332031 8.38680362701416 49.48806381225586 16.16677284240723 44.66609573364258 20.93002319335938 L 24.27547454833984 41.06400299072266 L 24.1298656463623 40.91553497314453 L 23.97749519348145 41.07052230834961 Z" stroke="none" fill="#365b72"/>
      </g>
      <path id="Path_7" data-name="Path 7" d="M0,7.964H6.96a.6.6,0,0,0,.557-.369l2.9-6.873a.6.6,0,0,1,1.1-.031l5.233,10.666a.6.6,0,0,0,1.083,0l3.512-7.013a.6.6,0,0,1,1.031-.082l2.472,3.445a.6.6,0,0,0,.491.252H29" transform="translate(292.015 194.662)" fill="none" stroke="#365b72" stroke-linecap="round" stroke-width="2"/>
    </g>
  </g>
</svg>
