<svg xmlns="http://www.w3.org/2000/svg" width="24" height="24" viewBox="0 0 24 24">
  <g id="ic_hide" opacity="0.997">
    <rect id="Rectangle_143" data-name="Rectangle 143" width="24" height="24" fill="rgba(255,255,255,0)"/>
    <path id="Subtraction_1" data-name="Subtraction 1" d="M9.429,11a8.256,8.256,0,0,1-1.192-.088L9.674,9.425C12.983,9.3,15.9,6.638,17.006,5.5a17.085,17.085,0,0,0-1.911-1.69l1.1-1.143A16.874,16.874,0,0,1,18.675,5a.783.783,0,0,1,0,1.005C18.505,6.207,14.456,11,9.429,11ZM4.166,9.37h0A17.439,17.439,0,0,1,.182,6,.785.785,0,0,1,.182,5c.17-.2,4.219-5,9.247-5a9.06,9.06,0,0,1,3.193.614l-1.21,1.253a7.106,7.106,0,0,0-1.982-.3C6.026,1.571,3,4.319,1.852,5.5A16.131,16.131,0,0,0,5.293,8.2L4.166,9.369Z" transform="translate(2.946 7)" fill="#365b72"/>
    <g id="_18-eye" data-name="18-eye" transform="translate(9.446 9.5)">
      <path id="Path_478" data-name="Path 478" d="M62,59a3,3,0,1,0-3,3A3,3,0,0,0,62,59Zm-3,1.8A1.8,1.8,0,1,1,60.8,59,1.8,1.8,0,0,1,59,60.8Z" transform="translate(-56 -56)" fill="#365b72"/>
    </g>
    <rect id="Rectangle_248" data-name="Rectangle 248" width="2" height="17" transform="translate(17.25 5.782) rotate(45)" fill="#fff"/>
    <rect id="Rectangle_1033" data-name="Rectangle 1033" width="1.5" height="17" transform="translate(18.25 6.782) rotate(45)" fill="#365b72"/>
  </g>
</svg>
