<svg id="Log_Out" data-name="Log Out" xmlns="http://www.w3.org/2000/svg" width="24" height="24" viewBox="0 0 24 24">
  <rect id="Rectangle_1520" data-name="Rectangle 1520" width="24" height="24" fill="#fff" opacity="0"/>
  <g id="logout" transform="translate(5 4)">
    <path id="Path_18394" data-name="Path 18394" d="M9.421,0c.05.021.1.04.152.063a.731.731,0,0,1,.42.809.731.731,0,0,1-.67.581c-.055,0-.111,0-.166,0H2.524A.978.978,0,0,0,1.457,2.515V12.992a.979.979,0,0,0,1.067,1.061H9.248a.726.726,0,0,1,.226,1.426.358.358,0,0,0-.052.027H2.152a.516.516,0,0,0-.083-.028A2.417,2.417,0,0,1,0,13.1Q0,7.753,0,2.41A2.418,2.418,0,0,1,1.831.074c.106-.027.214-.05.321-.074h7.27Z" transform="translate(-0.001)" fill="#fff"/>
    <path id="Path_18395" data-name="Path 18395" d="M119.739,91.775c-.063-.066-.1-.106-.137-.144-.685-.685-1.373-1.368-2.054-2.056a.723.723,0,0,1,.315-1.235.7.7,0,0,1,.7.193c.287.284.572.57.857.856l2.526,2.526a.74.74,0,0,1,0,1.173q-1.675,1.676-3.351,3.35a.727.727,0,1,1-1.036-1.017q.8-.806,1.605-1.606l.588-.586h-5.676a.735.735,0,0,1-.742-.509.725.725,0,0,1,.678-.943c.419-.008.838,0,1.257,0h4.475Z" transform="translate(-108.721 -84.748)" fill="#fff"/>
  </g>
</svg>
