<svg xmlns="http://www.w3.org/2000/svg" width="176" height="194.688" viewBox="0 0 176 194.688">
  <g id="splash_logo" data-name="splash logo" transform="translate(-86.401 -62.659)">
    <g id="Group_40859" data-name="Group 40859" transform="translate(86.401 220.347)">
      <text id="HealthCare" transform="translate(0 29)" fill="#fa6466" font-size="30" font-family="Montserrat-ExtraBold, Montserrat" letter-spacing="-0.01em" font-weight="800"><tspan x="0" y="0">Health</tspan><tspan y="0" fill="#5292eb" font-family="Montserrat" font-weight="400" letter-spacing="-0.01em">Care</tspan></text>
    </g>
    <g id="Group_40860" data-name="Group 40860" transform="translate(88.592 62.659)">
      <path id="Path_479" data-name="Path 479" d="M163.131,99.514c30.974-12.312,64.837-2.587,80.224,12.3a80.1,80.1,0,0,1,8.583,9.759,63.56,63.56,0,0,0,.168-22.609c-4.854-26.876-30.2-42.094-52.928-34.233-22.626,7.828-31.444,23.046-31.444,23.046s-8.819-15.218-31.444-23.046c-22.727-7.861-48.074,7.357-52.928,34.233-3.578,19.838,3.208,41.472,17.62,60.6a51.223,51.223,0,0,0,9.591,2.234c20.19,2.654,27.447-2.738,35.98-6.366,5.661-2.4,9.927.319,9.709,2.234-.319,2.956-11.489,8.012-9.087,9.071,9.457,4.2,21.081,4.233,29.865-3.259,10.9-9.306,14.966-2.939,14.966-2.939A41.2,41.2,0,0,1,170.3,181.2a81.822,81.822,0,0,1-40.868,5.661,147.034,147.034,0,0,0,38.315,19.334c40.6-13.572,70.582-42.665,81.148-73.085a46.524,46.524,0,0,0-26.422-13.035c-20.123-3.057-27.5,2.2-36.1,5.644-5.711,2.284-9.91-.521-9.675-2.419.386-2.956,11.641-7.777,9.272-8.886-9.373-4.384-21-4.636-29.916,2.671-11.086,9.087-15.034,2.654-15.034,2.654a41.206,41.206,0,0,1,22.105-20.224Zm-7.71,37.844h7.828v-7.827H172.2v7.828h7.828v8.953H172.2v7.827h-8.953v-7.827h-7.828v-8.953Z" transform="translate(-82.42 -62.659)" fill="#f95b5e"/>
      <path id="Path_480" data-name="Path 480" d="M148.678,137.352h7.828v-7.828h8.953v7.828h7.828V146.3h-7.76a200.732,200.732,0,0,0,58.152,18.359,100.44,100.44,0,0,0,18.46-31.545,46.523,46.523,0,0,0-26.422-13.035c-20.123-3.057-27.5,2.2-36.1,5.644-5.711,2.284-9.91-.521-9.675-2.419.386-2.956,11.64-7.777,9.272-8.886-9.373-4.384-21-4.636-29.916,2.671-11.086,9.087-15.034,2.654-15.034,2.654a41.206,41.206,0,0,1,22.105-20.224c30.974-12.312,64.837-2.587,80.224,12.3a80.106,80.106,0,0,1,8.583,9.759,63.561,63.561,0,0,0,.168-22.609c-4.854-26.876-30.2-42.094-52.928-34.233-22.626,7.828-31.444,23.046-31.444,23.046s-8.819-15.218-31.444-23.046c-12.984-4.485-26.808-1.445-37.189,7,4.871,10.448,10.6,20.207,26.876,39.826a132.428,132.428,0,0,0,29.479,25.8Z" transform="translate(-75.677 -62.652)" fill="#5292eb"/>
    </g>
  </g>
</svg>
